<?xml version="1.0" standalone="no"?>
<!DOCTYPE svg PUBLIC "-//W3C//DTD SVG 1.1//EN" "http://www.w3.org/Graphics/SVG/1.1/DTD/svg11.dtd">
<svg t="1629859527144" class="icon" viewBox="0 0 1024 1024" version="1.1" xmlns="http://www.w3.org/2000/svg" p-id="3111" xmlns:xlink="http://www.w3.org/1999/xlink" width="32" height="32">
	<defs>
		<style type="text/css">
		</style>
	</defs>
	<path d="M472.064 535.483733m36.283733 0l-0.034133 0q36.283733 0 36.283733 36.283734l0 290.0992q0 36.283733-36.283733 36.283733l0.034133 0q-36.283733 0-36.283733-36.283733l0-290.0992q0-36.283733 36.283733-36.283734Z" fill="#A0C394" p-id="3112">
	</path>
	<path d="M508.3136 535.483733c20.036267 0 36.283733 16.213333 36.283733 36.2496v290.133334a36.283733 36.283733 0 0 1-72.533333 0v-290.133334c0-20.036267 16.247467-36.283733 36.2496-36.283733z m0 31.163734a5.085867 5.085867 0 0 0-4.778667 3.4816l-0.273066 1.604266v290.133334a5.085867 5.085867 0 0 0 9.898666 1.604266l0.238934-1.604266v-290.133334a5.085867 5.085867 0 0 0-5.085867-5.085866z" fill="#333333" p-id="3113">
	</path>
	<path d="M678.229333 821.248c75.264-27.409067 125.166933-80.145067 111.479467-117.794133-13.687467-37.649067-85.845333-45.943467-161.109333-18.5344-75.298133 27.374933-125.2352 80.110933-111.5136 117.76 13.687467 37.649067 85.8112 45.943467 161.109333 18.5344z" fill="#AED8A0" p-id="3114">
	</path>
	<path d="M628.599467 684.919467c75.264-27.409067 147.421867-19.114667 161.109333 18.5344 13.687467 37.649067-36.215467 90.385067-111.5136 117.76-75.298133 27.409067-147.421867 19.114667-161.109333-18.5344-13.7216-37.649067 36.181333-90.385067 111.5136-117.76z m131.7888 29.184c-5.802667-15.906133-59.972267-22.152533-121.1392 0.1024-61.166933 22.289067-98.645333 61.883733-92.842667 77.824 5.802667 15.906133 59.938133 22.152533 121.1392-0.1024 61.166933-22.289067 98.645333-61.883733 92.842667-77.824z" fill="#333333" p-id="3115">
	</path>
	<path d="M717.7216 668.808533c36.4544 0.853333 64.034133 12.8 71.9872 34.645334 13.687467 37.649067-36.215467 90.385067-111.5136 117.76-75.298133 27.409067-147.421867 19.114667-161.109333-18.5344a37.000533 37.000533 0 0 1-0.546134-1.604267c26.453333 0.6144 57.514667-4.608 89.122134-16.110933 72.704-26.453333 121.7536-76.526933 112.708266-113.834667z" fill="#8DB47F" p-id="3116">
	</path>
	<path d="M628.599467 684.919467c75.264-27.409067 147.421867-19.114667 161.109333 18.5344 13.687467 37.649067-36.215467 90.385067-111.5136 117.76-75.298133 27.409067-147.421867 19.114667-161.109333-18.5344-13.7216-37.649067 36.181333-90.385067 111.5136-117.76z m131.7888 29.184c-5.802667-15.906133-59.972267-22.152533-121.1392 0.1024-61.166933 22.289067-98.645333 61.883733-92.842667 77.824 5.802667 15.906133 59.938133 22.152533 121.1392-0.1024 61.166933-22.289067 98.645333-61.883733 92.842667-77.824z" fill="#333333" p-id="3117">
	</path>
	<path d="M344.4736 823.125333c77.4144 20.753067 148.548267 6.178133 158.9248-32.529066 10.3424-38.673067-43.963733-86.869333-121.378133-107.588267-77.380267-20.753067-148.514133-6.178133-158.890667 32.529067-10.376533 38.673067 43.963733 86.869333 121.344 107.588266z" fill="#AED8A0" p-id="3118">
	</path>
	<path d="M223.1296 715.537067c10.376533-38.7072 81.5104-53.248 158.890667-32.529067 77.4144 20.718933 131.754667 68.9152 121.378133 107.588267-10.376533 38.7072-81.5104 53.248-158.9248 32.529066-77.380267-20.718933-131.720533-68.9152-121.344-107.588266z m150.8352-2.389334c-62.8736-16.861867-116.3264-5.9392-120.695467 10.4448-4.4032 16.384 36.420267 52.565333 99.293867 69.393067 62.8736 16.861867 116.292267 5.9392 120.695467-10.4448 4.369067-16.384-36.420267-52.565333-99.328-69.393067z" fill="#333333" p-id="3119">
	</path>
	<path d="M508.3136 644.266667c-48.196267 0-89.088-31.402667-103.389867-74.820267a108.782933 108.782933 0 0 1-103.355733-179.063467 108.8512 108.8512 0 0 1 103.424-179.029333 108.8512 108.8512 0 0 1 206.7456 0 108.782933 108.782933 0 0 1 103.3216 179.063467 108.8512 108.8512 0 0 1-103.424 179.029333 108.7488 108.7488 0 0 1-103.3216 74.820267z" fill="#FFD1D0" p-id="3120">
	</path>
	<path d="M728.1664 263.4752a108.8512 108.8512 0 0 1-13.1072 126.976 108.8512 108.8512 0 0 1-103.424 179.029333A108.7488 108.7488 0 0 1 426.9056 607.573333a108.7488 108.7488 0 0 0 112.264533-74.410666 108.8512 108.8512 0 0 0 103.424-179.029334 108.8512 108.8512 0 0 0 0.3072-144.759466 108.680533 108.680533 0 0 1 85.333334 54.0672zM332.3904 533.162667c4.096 12.322133 10.274133 23.722667 18.193067 33.655466a108.202667 108.202667 0 0 1-49.322667-31.744c10.3424 0.853333 20.821333 0.238933 31.1296-1.911466z m258.218667-359.0144l2.901333 3.447466a108.714667 108.714667 0 0 0-54.340267-2.56A108.680533 108.680533 0 0 0 517.256533 136.942933a108.270933 108.270933 0 0 1 73.386667 37.205334z" fill="#FFB4B2" p-id="3121">
	</path>
	<path d="M508.3136 644.266667a108.8512 108.8512 0 0 1-103.389867-74.8544 108.8512 108.8512 0 0 1-103.355733-179.063467 108.7488 108.7488 0 0 1 103.424-178.9952 108.8512 108.8512 0 0 1 206.7456 0.034133 108.8512 108.8512 0 0 1 103.355733 179.063467 108.7488 108.7488 0 0 1-103.424 178.9952 108.817067 108.817067 0 0 1-103.355733 74.820267z m0-31.197867c33.792 0 63.419733-21.777067 73.728-53.316267a31.197867 31.197867 0 0 1 36.0448-20.821333 77.653333 77.653333 0 0 0 73.728-127.658667 31.197867 31.197867 0 0 1 0-41.642666 77.653333 77.653333 0 0 0-73.693867-127.726934 31.197867 31.197867 0 0 1-36.0448-20.821333 77.653333 77.653333 0 0 0-147.456-0.034133 31.197867 31.197867 0 0 1-32.1536 21.4016l-3.857066-0.580267a77.653333 77.653333 0 0 0-73.796267 127.658667c10.581333 11.8784 10.615467 29.7984 0 41.642666a77.653333 77.653333 0 0 0 73.693867 127.726934 31.197867 31.197867 0 0 1 36.0448 20.821333 77.653333 77.653333 0 0 0 73.762133 53.3504z" fill="#333333" p-id="3122">
	</path>
	<path d="M502.442667 266.001067a124.381867 124.381867 0 1 0 0 248.797866 124.381867 124.381867 0 0 0 0-248.797866z m0 67.447466a56.9344 56.9344 0 1 1 0 113.902934 56.9344 56.9344 0 0 1 0-113.902934z" fill="#FFB4B2" p-id="3123">
	</path>
	<path d="M502.442667 481.0752a90.658133 90.658133 0 1 0 0-181.3504 90.658133 90.658133 0 0 0 0 181.3504z" fill="#FFD88E" p-id="3124">
	</path>
	<path d="M502.442667 299.7248a90.658133 90.658133 0 1 1 0 181.3504 90.658133 90.658133 0 0 1 0-181.3504z m0 31.197867a59.460267 59.460267 0 1 0 0 118.954666 59.460267 59.460267 0 0 0 0-118.954666z" fill="#333333" p-id="3125">
	</path>
	<path d="M396.970667 255.1808a18.1248 18.1248 0 0 1 5.12 35.908267c-16.861867 2.389333-26.146133 7.68-29.934934 15.1552-5.051733 9.966933-6.826667 23.893333-4.846933 42.052266a18.1248 18.1248 0 0 1-36.0448 3.9936c-2.730667-24.644267-0.034133-45.533867 8.567467-62.464 9.898667-19.456 29.627733-30.72 57.1392-34.645333z" fill="#FFEBEB" p-id="3126">
	</path>
</svg>
