<?xml version="1.0" standalone="no"?><!DOCTYPE svg PUBLIC "-//W3C//DTD SVG 1.1//EN" "http://www.w3.org/Graphics/SVG/1.1/DTD/svg11.dtd"><svg t="1627547674958" class="icon" viewBox="0 0 1024 1024" version="1.1" xmlns="http://www.w3.org/2000/svg" p-id="12444" xmlns:xlink="http://www.w3.org/1999/xlink" width="32" height="32"><defs><style type="text/css">@font-face { font-family: feedback-iconfont; src: url("//at.alicdn.com/t/font_1031158_1uhr8ri0pk5.eot?#iefix") format("embedded-opentype"), url("//at.alicdn.com/t/font_1031158_1uhr8ri0pk5.woff2") format("woff2"), url("//at.alicdn.com/t/font_1031158_1uhr8ri0pk5.woff") format("woff"), url("//at.alicdn.com/t/font_1031158_1uhr8ri0pk5.ttf") format("truetype"), url("//at.alicdn.com/t/font_1031158_1uhr8ri0pk5.svg#iconfont") format("svg"); }
</style></defs><path d="M922 910.5H102c-21.9 0-39.6-17.7-39.6-39.6V224.3c0-21.9 17.7-39.6 39.6-39.6h820c21.9 0 39.6 17.7 39.6 39.6v646.6c0 21.8-17.8 39.6-39.6 39.6z" fill="#FFA000" p-id="12445"></path><path d="M512 354.9H62.4V153.1c0-21.9 17.7-39.6 39.6-39.6h307.7c17.5 0 32.9 11.4 37.9 28.2L512 354.9z" fill="#FFA000" p-id="12446"></path><path d="M859.7 861.3H164.3c-21.9 0-39.6-17.7-39.6-39.6v-537c0-21.9 17.7-39.6 39.6-39.6h695.5c21.9 0 39.6 17.7 39.6 39.6v537c0 21.8-17.8 39.6-39.7 39.6z" fill="#FFFFFF" p-id="12447"></path><path d="M922 910.5H102c-21.9 0-39.6-17.7-39.6-39.6V359.1c0-21.9 17.7-39.6 39.6-39.6h820c21.9 0 39.6 17.7 39.6 39.6v511.8c0 21.8-17.8 39.6-39.6 39.6z" fill="#FFCA28" p-id="12448"></path><path d="M852.8 319.5L612.4 738.8l-209.8-279L147 471.3l97.5 130.1-97.5 4.4 228.2 304.6H922c21.9 0 39.6-17.7 39.6-39.6V463.3L852.8 319.5z" fill="#FFB806" p-id="12449"></path><path d="M382.8 483.1H165.1c-10.9 0-19.8-8.9-19.8-19.8s8.9-19.8 19.8-19.8h217.7c10.9 0 19.8 8.9 19.8 19.8s-8.9 19.8-19.8 19.8zM382.8 617.6H165.1c-10.9 0-19.8-8.9-19.8-19.8s8.9-19.8 19.8-19.8h217.7c10.9 0 19.8 8.9 19.8 19.8 0 11-8.9 19.8-19.8 19.8z" fill="#FFF8E1" p-id="12450"></path><path d="M837.4 762.9l-107-70.7c-3.3-2.2-7.6-2.2-10.9 0l-107 70.7c-6.6 4.4-15.4-0.4-15.4-8.3V318.1c0-10.9 8.5-19.8 18.9-19.8h217.8c10.4 0 18.9 8.9 18.9 19.8v436.5c0.1 7.9-8.7 12.7-15.3 8.3z" fill="#F44336" p-id="12451"></path></svg>