<?xml version="1.0" standalone="no"?><!DOCTYPE svg PUBLIC "-//W3C//DTD SVG 1.1//EN" "http://www.w3.org/Graphics/SVG/1.1/DTD/svg11.dtd"><svg t="1627459003125" class="icon" viewBox="0 0 1024 1024" version="1.1" xmlns="http://www.w3.org/2000/svg" p-id="2644" xmlns:xlink="http://www.w3.org/1999/xlink" width="64" height="64"><defs><style type="text/css">@font-face { font-family: feedback-iconfont; src: url("//at.alicdn.com/t/font_1031158_1uhr8ri0pk5.eot?#iefix") format("embedded-opentype"), url("//at.alicdn.com/t/font_1031158_1uhr8ri0pk5.woff2") format("woff2"), url("//at.alicdn.com/t/font_1031158_1uhr8ri0pk5.woff") format("woff"), url("//at.alicdn.com/t/font_1031158_1uhr8ri0pk5.ttf") format("truetype"), url("//at.alicdn.com/t/font_1031158_1uhr8ri0pk5.svg#iconfont") format("svg"); }
</style></defs><path d="M810.56 314.88l-112 193.984c-17.696 30.592-56.8 41.088-87.424 23.392l-27.68-16 32-55.392c15.296 8.8 34.88 3.584 43.68-11.712l80-138.56c8.832-15.328 3.584-34.88-11.68-43.712l-110.88-64c-15.328-8.832-34.88-3.584-43.68 11.712l-80 138.56c-8.864 15.328-3.616 34.88 11.68 43.712l-32 55.392-27.68-16c-30.624-17.664-41.12-56.8-23.424-87.392l112-193.984c17.696-30.624 56.8-41.088 87.424-23.424l166.24 96c30.624 17.664 41.12 56.8 23.424 87.424zM432 650.56c-15.328-8.832-20.576-28.416-11.712-43.712l128-221.696c8.832-15.328 28.416-20.576 43.712-11.712s20.576 28.416 11.68 43.712l-128 221.696c-8.8 15.296-28.352 20.512-43.68 11.712z m-23.424-87.392c-15.328-8.832-34.88-3.584-43.712 11.68l-80 138.56c-8.832 15.328-3.584 34.88 11.712 43.712l110.88 64c15.296 8.832 34.88 3.584 43.68-11.712l80-138.56c8.832-15.296 3.584-34.88-11.68-43.712l32-55.392 27.68 16c30.624 17.664 41.12 56.768 23.424 87.392l-112 193.984c-17.696 30.624-56.8 41.088-87.424 23.424l-166.272-96c-30.624-17.696-41.12-56.8-23.424-87.424l112-193.984c17.696-30.624 56.832-41.12 87.456-23.424l27.68 16-32 55.456z" p-id="2645"></path></svg>