<?xml version="1.0" standalone="no"?><!DOCTYPE svg PUBLIC "-//W3C//DTD SVG 1.1//EN" "http://www.w3.org/Graphics/SVG/1.1/DTD/svg11.dtd"><svg t="1627459028993" class="icon" viewBox="0 0 1024 1024" version="1.1" xmlns="http://www.w3.org/2000/svg" p-id="3096" xmlns:xlink="http://www.w3.org/1999/xlink" width="64" height="64"><defs><style type="text/css">@font-face { font-family: feedback-iconfont; src: url("//at.alicdn.com/t/font_1031158_1uhr8ri0pk5.eot?#iefix") format("embedded-opentype"), url("//at.alicdn.com/t/font_1031158_1uhr8ri0pk5.woff2") format("woff2"), url("//at.alicdn.com/t/font_1031158_1uhr8ri0pk5.woff") format("woff"), url("//at.alicdn.com/t/font_1031158_1uhr8ri0pk5.ttf") format("truetype"), url("//at.alicdn.com/t/font_1031158_1uhr8ri0pk5.svg#iconfont") format("svg"); }
</style></defs><path d="M511.998 720.512c152.428 0 359.182-155.773 373.55-198.595-5.607-46.914-200.198-216.57-373.55-216.57-164.905 0-373.65 135.134-373.67 217.605 4.34 40.627 204.655 197.56 373.67 197.56m0 41.535c-173.163 0-415.166-162.973-415.166-238.74 0-120.066 243.452-259.501 415.166-259.501 187.905 0 415.17 182.613 415.17 259.5 0 63.976-248.398 238.74-415.17 238.74z m0 0" p-id="3097"></path><path d="M511.998 616.72c57.209 0 103.795-46.586 103.795-103.794s-46.586-103.79-103.795-103.79-103.79 46.58-103.79 103.79 46.58 103.795 103.79 103.795m0 41.536c-80.272 0-145.33-65.06-145.33-145.331 0-80.272 65.058-145.33 145.33-145.33 80.276 0 145.33 65.058 145.33 145.33 0 80.271-65.054 145.33-145.33 145.33z m0 0" p-id="3098"></path></svg>