<?xml version="1.0" standalone="no"?><!DOCTYPE svg PUBLIC "-//W3C//DTD SVG 1.1//EN" "http://www.w3.org/Graphics/SVG/1.1/DTD/svg11.dtd"><svg t="1627460985497" class="icon" viewBox="0 0 1024 1024" version="1.1" xmlns="http://www.w3.org/2000/svg" p-id="853" xmlns:xlink="http://www.w3.org/1999/xlink" width="64" height="64"><defs><style type="text/css">@font-face { font-family: feedback-iconfont; src: url("//at.alicdn.com/t/font_1031158_1uhr8ri0pk5.eot?#iefix") format("embedded-opentype"), url("//at.alicdn.com/t/font_1031158_1uhr8ri0pk5.woff2") format("woff2"), url("//at.alicdn.com/t/font_1031158_1uhr8ri0pk5.woff") format("woff"), url("//at.alicdn.com/t/font_1031158_1uhr8ri0pk5.ttf") format("truetype"), url("//at.alicdn.com/t/font_1031158_1uhr8ri0pk5.svg#iconfont") format("svg"); }
</style></defs><path d="M329.64 309.986c0 32.362-26.23 58.591-58.534 58.591-32.362 0-58.591-26.228-58.591-58.59 0-32.305 26.228-58.534 58.591-58.534 32.305-0.001 58.534 26.228 58.534 58.533z m-58.534-29.91c-16.531 0-29.91 13.436-29.91 29.968 0 16.474 13.379 29.85 29.91 29.85 16.473 0 29.91-13.377 29.91-29.85 0-16.532-13.437-29.967-29.91-29.967z m295.293 29.91c0 32.362-26.228 58.591-58.533 58.591-32.362 0-58.591-26.228-58.591-58.59 0-32.305 26.228-58.534 58.591-58.534 32.306-0.001 58.533 26.228 58.533 58.533z m-58.533-29.91c-16.531 0-29.91 13.436-29.91 29.968 0 16.474 13.379 29.85 29.91 29.85 16.475 0 29.91-13.377 29.91-29.85 0-16.532-13.435-29.967-29.91-29.967z m153.869 249.205c0 32.36-26.228 58.591-58.532 58.591-32.363 0-58.59-26.23-58.59-58.591 0-32.305 26.226-58.534 58.59-58.534 32.304 0 58.532 26.228 58.532 58.534z m-58.533-29.91c-16.532 0-29.91 13.435-29.91 29.968 0 16.473 13.377 29.85 29.91 29.85 16.474 0 29.91-13.377 29.91-29.85-0.001-16.533-13.436-29.968-29.91-29.968z m242.896 29.91c0 32.36-26.23 58.591-58.534 58.591-32.36 0-58.59-26.23-58.59-58.591 0-32.305 26.228-58.534 58.59-58.534 32.303 0 58.534 26.228 58.534 58.534z m-58.535-29.91c-16.533 0-29.91 13.435-29.91 29.968 0 16.473 13.376 29.85 29.91 29.85 16.473 0 29.91-13.377 29.91-29.85 0-16.533-13.437-29.968-29.91-29.968zM362.06 109.21c320.587-5.607 376.667 238.339 376.667 238.339 205.624 39.255 254.41 181.761 254.226 273.649-0.197 99.349-113.093 183.399-113.093 183.399l30.845 110.289-123.172-65.427s-236.671 83.185-372.198-137.393c0 0-101.585 2.803-144.259-14.02L122.79 770.01l41.125-125.243C-88.445 484.008 41.472 114.817 362.06 109.209zM706.95 344.744s-71.034-235.622-377.31-201.887C173.025 160.12 56.982 299.354 63.642 416.713c6.776 119.432 74.1 171.158 137.657 216.84l-27.104 77.577 90.662-45.8s101.878 22.432 132.72 16.824c-15.888-48.602-35.516-338.345 309.373-337.41z m154.217 507.519l-15.072-59.818c134.709-102.813 149.662-200.95 59.935-326.195-89.728-125.244-428.073-141.89-478.224 107.486-42.646 208.152 233.929 300.085 367 242.074l66.36 36.453z" p-id="854" fill="#73777a"></path></svg>