<?xml version="1.0" standalone="no"?><!DOCTYPE svg PUBLIC "-//W3C//DTD SVG 1.1//EN" "http://www.w3.org/Graphics/SVG/1.1/DTD/svg11.dtd"><svg t="1632237861904" class="icon" viewBox="0 0 1024 1024" version="1.1" xmlns="http://www.w3.org/2000/svg" p-id="2501" xmlns:xlink="http://www.w3.org/1999/xlink" width="20" height="20"><defs><style type="text/css"></style></defs><path d="M936.41 218.95L561.84 12.76C546.62 4.41 529.39 0 512 0c-17.42 0-34.65 4.41-49.86 12.76L87.57 218.95c-32.65 17.95-52.9 52.12-52.88 89.13v407.88c0.04 36.93 20.3 71.02 52.88 88.97l374.55 206.31C477.27 1019.6 494.5 1024 512 1024c17.48 0 34.71-4.41 49.84-12.76l374.57-206.31c32.59-17.95 52.86-52.04 52.9-88.97V308.08c0-37.05-20.27-71.18-52.9-89.13zM103.05 715.96V308.08c-0.12-12.52 6.61-24.17 17.48-30.43L494.58 71.51c5.17-2.84 11.01-4.36 16.9-4.36 5.89 0 11.71 1.52 16.88 4.36l375.09 206.14c10.91 6.26 17.62 17.91 17.5 30.43l0.51 407.84c0.1 12.52-6.63 24.21-17.48 30.43L529.39 952.49a34.841 34.841 0 0 1-16.88 4.36c-5.95 0-11.77-1.52-16.88-4.32L120.51 746.34c-10.89-6.25-17.58-17.91-17.46-30.38z" fill="#ffffff" p-id="2502"></path><path d="M205.44 375.35l272.63 155.91v312.07c0 18.53 15.21 33.6 33.92 33.6s33.92-15.07 33.92-33.6V531.31l272.63-156.45c15.29-9.68 20.19-29.48 11.14-45.08-6.05-10.38-17.33-16.8-29.42-16.8-3.93 0-7.76 0.66-12.33 2.39L512 473.18 239.43 317.3a34.542 34.542 0 0 0-15.75-3.83c-12.06 0-23.32 6.42-29.4 16.8-9.05 15.61-4.28 35.33 11.16 45.08z" fill="#ffffff" p-id="2503"></path></svg>