<?xml version="1.0" standalone="no"?><!DOCTYPE svg PUBLIC "-//W3C//DTD SVG 1.1//EN" "http://www.w3.org/Graphics/SVG/1.1/DTD/svg11.dtd"><svg t="1632408737638" class="icon" viewBox="0 0 1024 1024" version="1.1" xmlns="http://www.w3.org/2000/svg" p-id="13065" width="32" height="32" xmlns:xlink="http://www.w3.org/1999/xlink"><defs><style type="text/css"></style></defs><path d="M946.56 303.36c-9.28-19.2-32-27.2-51.2-18.24-19.2 9.28-27.2 32-18.24 51.2 26.24 55.04 39.68 114.56 39.68 176 0 225.92-183.68 409.6-409.6 409.6-225.92 0-409.6-183.68-409.6-409.6s183.68-409.6 409.6-409.6c59.84 0 117.44 12.48 171.52 37.44 19.2 8.96 41.92 0.32 50.88-18.88 8.96-19.2 0.32-41.92-18.88-50.88-64-29.44-132.48-44.48-203.52-44.48-268.16 0-486.4 218.24-486.4 486.4s218.24 486.4 486.4 486.4c268.16 0 486.4-218.24 486.4-486.4C993.6 439.36 977.92 368.96 946.56 303.36z" p-id="13066" fill="#ffffff"></path><path d="M358.4 755.2l414.4-249.92L349.44 271.36 358.4 755.2zM619.2 508.16 432.64 620.8l-4.16-217.6L619.2 508.16z" p-id="13067" fill="#ffffff"></path></svg>