<?xml version="1.0" standalone="no"?><!DOCTYPE svg PUBLIC "-//W3C//DTD SVG 1.1//EN" "http://www.w3.org/Graphics/SVG/1.1/DTD/svg11.dtd"><svg t="1635607173673" class="icon" viewBox="0 0 1024 1024" version="1.1" xmlns="http://www.w3.org/2000/svg" p-id="5869" xmlns:xlink="http://www.w3.org/1999/xlink" width="24" height="24"><defs><style type="text/css"></style></defs><path d="M512 512m-426.666667 0a426.666667 426.666667 0 1 0 853.333334 0 426.666667 426.666667 0 1 0-853.333334 0Z" fill="#000000" opacity=".3" p-id="5870"></path><path d="M469.333333 426.666667m42.666667 0l0 0q42.666667 0 42.666667 42.666666l0 213.333334q0 42.666667-42.666667 42.666666l0 0q-42.666667 0-42.666667-42.666666l0-213.333334q0-42.666667 42.666667-42.666666Z" fill="#000000" p-id="5871"></path><path d="M469.333333 298.666667m42.666667 0l0 0q42.666667 0 42.666667 42.666666l0 0q0 42.666667-42.666667 42.666667l0 0q-42.666667 0-42.666667-42.666667l0 0q0-42.666667 42.666667-42.666666Z" fill="#000000" p-id="5872"></path></svg>