<?xml version="1.0" standalone="no"?><!DOCTYPE svg PUBLIC "-//W3C//DTD SVG 1.1//EN" "http://www.w3.org/Graphics/SVG/1.1/DTD/svg11.dtd"><svg t="1632033293505" class="icon" viewBox="0 0 1024 1024" version="1.1" xmlns="http://www.w3.org/2000/svg" p-id="1186" xmlns:xlink="http://www.w3.org/1999/xlink" width="20" height="20"><defs><style type="text/css"></style></defs><path d="M906.666667 480h-789.333334c-17.066667 0-32 14.933333-32 32s14.933333 32 32 32h789.333334c17.066667 0 32-14.933333 32-32s-14.933333-32-32-32zM117.333333 266.666667h789.333334c17.066667 0 32-14.933333 32-32s-14.933333-32-32-32h-789.333334c-17.066667 0-32 14.933333-32 32s14.933333 32 32 32zM906.666667 757.333333h-789.333334c-17.066667 0-32 14.933333-32 32s14.933333 32 32 32h789.333334c17.066667 0 32-14.933333 32-32s-14.933333-32-32-32z" p-id="1187" fill="#e6e6e6"></path></svg>