<?xml version="1.0" standalone="no"?><!DOCTYPE svg PUBLIC "-//W3C//DTD SVG 1.1//EN" "http://www.w3.org/Graphics/SVG/1.1/DTD/svg11.dtd"><svg t="1632033362725" class="icon" viewBox="0 0 1024 1024" version="1.1" xmlns="http://www.w3.org/2000/svg" p-id="1597" xmlns:xlink="http://www.w3.org/1999/xlink" width="20" height="20"><defs><style type="text/css"></style></defs><path d="M885.333333 488.533333L512 810.666667 138.666667 488.533333c-12.8-10.666667-34.133333-10.666667-44.8 4.266667-10.666667 12.8-10.666667 34.133333 4.266666 44.8l394.666667 341.333333c6.4 4.266667 12.8 8.533333 21.333333 8.533334s14.933333-2.133333 21.333334-8.533334l394.666666-341.333333c12.8-10.666667 14.933333-32 4.266667-44.8-14.933333-14.933333-36.266667-17.066667-49.066667-4.266667z" p-id="1598" fill="#e6e6e6"></path><path d="M490.666667 535.466667c6.4 4.266667 12.8 8.533333 21.333333 8.533333s14.933333-2.133333 21.333333-8.533333l394.666667-341.333334c12.8-10.666667 14.933333-32 4.266667-44.8-10.666667-12.8-32-14.933333-44.8-4.266666L512 469.333333 138.666667 147.2c-12.8-12.8-34.133333-10.666667-44.8 2.133333-12.8 12.8-10.666667 34.133333 2.133333 44.8l394.666667 341.333334z" p-id="1599" fill="#e6e6e6"></path></svg>