<?xml version="1.0" standalone="no"?><!DOCTYPE svg PUBLIC "-//W3C//DTD SVG 1.1//EN" "http://www.w3.org/Graphics/SVG/1.1/DTD/svg11.dtd"><svg t="1638696332800" class="icon" viewBox="0 0 1024 1024" version="1.1" xmlns="http://www.w3.org/2000/svg" p-id="5799" width="32" height="32" xmlns:xlink="http://www.w3.org/1999/xlink"><defs><style type="text/css"></style></defs><path d="M750.336 512l-60.330667-60.330667a42.666667 42.666667 0 0 1 60.330667-60.330666L810.666667 451.669333l60.330666-60.330666a42.666667 42.666667 0 0 1 60.330667 60.330666L870.997333 512l60.330667 60.330667a42.666667 42.666667 0 0 1-60.330667 60.330666L810.666667 572.330667l-60.330667 60.330666a42.666667 42.666667 0 0 1-60.330667-60.330666L750.336 512z" fill="#ffffff" opacity=".3" p-id="5800"></path><path d="M298.666667 682.666667l-144.725334-28.928A85.333333 85.333333 0 0 1 85.333333 570.026667v-116.053334a85.333333 85.333333 0 0 1 68.608-83.712L298.666667 341.333333l140.501333-140.501333A42.666667 42.666667 0 0 1 512 230.997333v562.005334a42.666667 42.666667 0 0 1-72.832 30.165333L298.666667 682.666667z" fill="#ffffff" p-id="5801"></path></svg>